<svg width="82" height="82" viewBox="0 0 82 82" fill="none" xmlns="http://www.w3.org/2000/svg">
<path d="M44.1949 11.5319C41.9064 11.5665 39.6268 12.0695 37.4724 13.1965C31.249 16.4535 28.8423 23.7016 28.8336 30.1931C23.4457 31.458 18.3128 33.8237 13.9015 37.1655L13.8984 37.1672L13.8954 37.1703C8.89758 41.0338 4.38228 46.9653 5.04334 53.835C5.64302 60.1476 11.0668 64.5857 16.6141 66.3503C26.1475 69.4522 36.6998 67.7634 45.4488 63.3243C47.7373 65.082 50.2357 66.564 52.9422 67.6859C58.7669 70.1881 66.3382 69.933 71.0162 65.0079C76.3752 59.4073 76.8894 51.0846 75.6008 44.0161L75.5994 44.0099L75.598 44.0038C73.4129 32.8064 66.9114 22.3345 57.4096 15.8943L57.4065 15.8919C53.8814 13.531 49.5405 11.7263 45.1782 11.5426C44.8681 11.5303 44.5223 11.5257 44.1949 11.5319ZM21.8055 11.942C20.3235 11.9359 18.838 12.4901 17.7086 13.6205C17.7081 13.621 17.7091 13.62 17.7086 13.6205C16.5816 14.7544 16.0149 16.2929 16.0563 17.8601C14.4881 17.8255 12.951 18.3874 11.8205 19.5213C11.7455 19.6011 11.6869 19.6948 11.6481 19.7972C9.63537 22.0719 9.70428 25.5625 11.8205 27.6787C13.8333 29.6949 17.3653 29.6708 20.3762 29.3744C23.385 29.0642 25.9644 28.3646 25.9644 28.3646C26.1036 28.3262 26.2304 28.2523 26.3325 28.1502C26.4346 28.0481 26.5085 27.9213 26.5469 27.7821C26.5469 27.7821 27.2603 25.1972 27.5567 22.1818C27.8669 19.1661 27.8669 15.6265 25.8679 13.6103C24.7719 12.5108 23.3002 11.9525 21.8193 11.9456L21.8055 11.942ZM44.5667 13.2104C48.7236 13.245 52.9852 14.944 56.4762 17.2821C65.5692 23.4462 71.8516 33.5449 73.9574 44.3177C75.1913 51.0802 74.6295 58.8222 69.8078 63.8586L69.8053 63.861C65.7332 68.1485 58.8963 68.4352 53.5939 66.153L53.5877 66.1516L53.5815 66.1502C49.9766 64.6578 46.7385 62.471 43.8951 59.8217C43.8222 59.7218 43.728 59.6394 43.6193 59.5804C39.2225 55.4001 35.7919 50.1021 33.4493 44.5214L33.4483 44.5153C33.4479 44.5149 33.4483 44.5159 33.4483 44.5153C32.983 43.3813 32.5646 42.2223 32.1992 41.0509C32.6439 40.9474 33.0884 40.8442 33.5365 40.775C33.5379 40.7747 33.5396 40.7737 33.5396 40.7737C36.1141 40.329 38.778 40.0878 41.3829 40.2256C41.693 40.9942 42.048 41.7628 42.4168 42.5279C42.8786 43.486 43.3818 44.4339 43.9229 45.3748C47.1868 51.0316 51.4478 55.6903 55.8576 58.4392C55.8792 58.4635 55.9022 58.4865 55.9265 58.5081C57.4085 59.4283 59.0146 60.2107 60.7375 60.6932C64.2867 61.8478 68.6862 60.9344 70.8186 57.5362C73.6378 53.0777 73.1381 47.5819 72.0835 42.9022L72.0804 42.8929L72.0773 42.8836C69.9749 34.492 65.3431 26.6804 58.7936 20.9912L58.7875 20.9851L58.7813 20.9789C56.1689 18.8145 52.9647 16.6994 49.4241 16.1363C48.2453 15.9639 47.0256 15.9293 45.7797 16.1455L45.7766 16.1466C43.6708 16.5223 41.9975 17.7802 40.837 19.3794C39.6755 20.9786 38.9932 22.9255 38.7829 24.826C38.7733 24.8945 38.7723 24.9639 38.7798 25.0326C38.7109 25.3773 38.6763 25.7081 38.6763 26.0528C38.6074 26.8662 38.5728 27.7072 38.6074 28.5722C38.6167 28.7792 38.626 28.9858 38.642 29.196C35.9158 29.1272 33.1834 29.3684 30.502 29.8957C30.6055 23.9301 32.8801 17.5395 38.2405 14.733C40.2361 13.6887 42.3839 13.251 44.5615 13.2682L44.5667 13.2104ZM21.8065 13.6136C22.8611 13.6198 23.9089 14.0134 24.674 14.782C25.9079 16.0158 26.1664 19.1601 25.8838 22.0107C25.6425 24.4405 25.1876 26.2765 25.0359 26.8614C24.4535 27.0338 22.6199 27.4714 20.198 27.7093C17.3546 27.9851 14.2217 27.7278 12.9885 26.4995C11.4583 24.9658 11.4066 22.3002 13.0009 20.6993C13.9969 19.7033 15.4238 19.2862 16.7893 19.5895C16.9264 19.6201 17.069 19.6157 17.204 19.5764C17.3389 19.5372 17.4617 19.4646 17.561 19.3652C17.6604 19.2659 17.733 19.1431 17.7722 19.0081C17.8115 18.8732 17.816 18.7306 17.7854 18.5935C17.4752 17.2252 17.8889 15.7949 18.8882 14.7964C19.6878 13.9969 20.7519 13.6101 21.8065 13.6136ZM47.6317 17.6209C51.2782 17.6394 54.786 19.7957 57.7039 22.2134C63.9728 27.6607 68.4368 35.1793 70.4581 43.2435C70.4585 43.2441 70.4595 43.2449 70.4595 43.2466C71.4728 47.7532 71.8416 52.7576 69.4083 56.6029C68.0642 58.7501 65.4111 59.6661 62.8958 59.4111C65.8667 57.3466 67.3684 53.6026 67.4883 49.2724C67.6261 44.6513 66.2061 39.2844 63.2621 34.1732C60.3188 29.062 56.3825 25.1546 52.3235 22.9551C50.2935 21.8556 48.2121 21.1801 46.2145 21.025C44.4809 20.8872 42.8128 21.1628 41.2946 21.8556C41.5358 21.3076 41.8391 20.7906 42.1838 20.315C43.1454 18.9881 44.4344 18.0369 46.0612 17.7473C46.585 17.6438 47.1089 17.6096 47.6328 17.6096L47.6317 17.6209ZM45.4914 22.6556C47.3801 22.6899 49.437 23.2863 51.5315 24.4237C55.2568 26.4433 59.0119 30.1366 61.8187 35.008C64.6242 39.8789 65.9404 44.9843 65.8229 49.2277C65.6851 53.47 64.1893 56.7708 61.4451 58.3596C61.4448 58.36 61.4458 58.3592 61.4451 58.3596C61.1349 58.532 60.8267 58.6709 60.5062 58.7777C58.7623 58.1918 56.9418 57.1923 55.1369 55.8482C58.9298 51.5021 61.3269 45.1367 58.7216 39.424C55.9161 33.2437 49.1954 30.3545 43.0399 29.467H43.0337L43.0306 29.4656C42.1346 29.3278 41.2315 29.2587 40.3251 29.1898C40.3066 28.9485 40.2905 28.6866 40.2905 28.4384C40.2559 27.6319 40.2782 26.8565 40.3594 26.112C40.4283 25.4675 40.5318 24.8609 40.6353 24.2681C40.9111 24.0268 41.1902 23.8201 41.49 23.6374C42.6928 22.9446 44.0577 22.6172 45.5256 22.6413L45.4914 22.6556ZM38.2106 30.8005C39.7478 30.8097 41.285 30.9382 42.8097 31.1106C48.625 31.9516 54.7371 34.6699 57.2021 40.1044C59.4595 45.055 57.3398 50.8099 53.8279 54.8014C53.4764 54.4912 53.1248 54.1982 52.7767 53.8777C53.6384 52.7231 54.3656 51.4238 54.7654 49.9735C55.8476 46.5511 54.0623 42.9047 51.101 41.1814C50.8252 41.0091 50.5599 40.8712 50.2842 40.723L50.278 40.7138L50.0368 40.576C50.0306 40.5729 50.0213 40.5698 50.0182 40.5667C49.777 40.4289 49.515 40.3255 49.26 40.2048C49.2053 40.1755 49.1474 40.1524 49.0876 40.1359C46.9128 39.2088 44.6195 38.7194 42.301 38.5333C42.1973 38.4726 42.0818 38.435 41.9622 38.4231C41.8426 38.4112 41.7219 38.4253 41.6083 38.4644C38.7856 38.292 35.935 38.6021 33.226 39.0503L33.2198 39.0517L33.2105 39.0548C26.8948 40.2748 20.5583 42.8008 15.7514 47.3254C15.6881 47.3635 15.6302 47.4099 15.5791 47.4632C15.3378 47.7045 15.0793 47.9595 14.8346 48.2248C14.4624 48.5936 14.0971 49.0038 13.7869 49.4656C13.1562 50.2997 12.5978 51.213 12.1842 52.1884C11.4019 54.0185 11.1227 56.0967 11.874 58.1364L11.8771 58.1457L11.8802 58.1549C13.4794 62.2066 17.8486 63.8682 21.5378 64.5527L21.5439 64.5538L21.5501 64.5552C28.8516 65.7787 36.3837 64.2794 43.0038 61.2396C43.3484 61.5498 43.6689 61.8289 44.0033 62.1185C35.7206 66.1364 25.8862 67.5691 17.1058 64.7102L17.1027 64.7093C12.029 63.0962 7.20318 59.0548 6.68584 53.6237C6.10339 47.5785 10.1669 42.0961 14.8911 38.4421L14.8942 38.439C14.8955 38.4383 14.8959 38.4373 14.8972 38.4359C21.5194 33.4216 29.8831 30.6923 38.1924 30.7478L38.2106 30.8005ZM43.2733 40.377C45.2619 40.6182 47.1937 41.1455 49.0031 41.9934C49.9888 44.1544 49.496 46.7655 48.2518 48.8685C47.2316 47.5141 46.2631 46.0596 45.3774 44.5221C44.8569 43.6157 44.371 42.6979 43.9229 41.7777C43.6817 41.3124 43.4801 40.8457 43.2733 40.377ZM30.58 41.4316C30.9695 42.6861 31.4106 43.9235 31.9104 45.1384L31.9118 45.1415C33.5937 49.1529 35.8267 53.0378 38.5725 56.4995C33.9304 58.4227 28.7575 59.2533 23.8251 58.4433C20.2367 57.8333 16.4954 56.1411 15.0999 52.8169L15.0653 52.748L15.0307 52.6791C14.593 52.0002 14.6378 51.5487 14.893 50.9628C14.9618 50.825 15.0307 50.6526 15.1342 50.5147C15.4444 50.1253 15.7443 49.7496 16.0717 49.398L16.3129 49.1568L16.3222 49.1506L16.3314 49.1414C20.1743 45.284 25.2497 42.8387 30.5591 41.4318L30.58 41.4316ZM4.28741 43.2376C4.13751 43.2347 3.98955 43.2721 3.85916 43.3461C3.72876 43.4201 3.62072 43.5279 3.54638 43.6581C2.56413 45.3193 1.78521 47.0943 1.30269 48.9606C1.26917 49.0683 1.25788 49.1817 1.26946 49.294C1.28103 49.4062 1.31524 49.5149 1.37004 49.6136C1.42484 49.7122 1.49908 49.7987 1.58827 49.8678C1.67745 49.937 1.77974 49.9873 1.88893 50.0157C1.99812 50.0442 2.11195 50.0502 2.22353 50.0335C2.33512 50.0167 2.44212 49.9774 2.5381 49.9181C2.63408 49.8587 2.71702 49.7806 2.78192 49.6882C2.84682 49.5959 2.89234 49.4915 2.91569 49.3811C3.35685 47.6854 4.0668 46.0552 4.98013 44.5087C5.05649 44.3834 5.09847 44.2401 5.10178 44.0934C5.1051 43.9467 5.06964 43.8017 4.99903 43.6731C4.92842 43.5444 4.82514 43.4367 4.69959 43.3607C4.57405 43.2847 4.43069 43.2433 4.28397 43.2404L4.28741 43.2376ZM51.151 43.2722C52.926 44.7818 53.8841 47.2705 53.1741 49.498L53.168 49.5165L53.1618 49.5351C52.8516 50.669 52.2794 51.7374 51.5626 52.73C50.8078 51.9649 50.0668 51.1377 49.343 50.2657C50.6872 48.2668 51.5212 45.727 51.149 43.2748L51.151 43.2722ZM79.3778 44.0993C79.2543 44.0991 79.1324 44.1262 79.0207 44.1788C78.909 44.2313 78.8104 44.308 78.732 44.4033C78.6535 44.4986 78.5972 44.6101 78.567 44.7298C78.5368 44.8494 78.5336 44.9743 78.5575 45.0954C79.3054 49.1851 79.5122 53.5977 78.7987 57.7352C78.6264 58.7692 78.3817 59.7859 78.0819 60.7785C78.0446 60.8848 78.0292 60.9976 78.0366 61.11C78.0441 61.2224 78.0742 61.3321 78.1252 61.4325C78.1762 61.533 78.247 61.6221 78.3334 61.6944C78.4197 61.7667 78.5198 61.8208 78.6277 61.8534C78.7355 61.886 78.8488 61.8965 78.9608 61.8841C79.0727 61.8718 79.181 61.8368 79.2792 61.7815C79.3773 61.7261 79.4631 61.6515 79.5316 61.562C79.6001 61.4726 79.6498 61.3702 79.6776 61.261C79.9878 60.1995 80.2532 59.1173 80.4427 58.0213C81.2044 53.6342 80.9769 49.041 80.2015 44.798C80.1689 44.6038 80.0687 44.4274 79.9185 44.3C79.7684 44.1726 79.5781 44.1024 79.3812 44.1018L79.3778 44.0993ZM13.5341 53.4147C13.5526 53.4835 13.603 53.5182 13.603 53.5524C15.3504 57.5907 19.6654 59.4436 23.5352 60.0998H23.5414C29.0076 60.9959 34.662 60.0309 39.6722 57.8527C40.327 58.6109 41.0095 59.3485 41.716 60.0585C35.4977 62.8019 28.5237 64.0895 21.8436 62.9708C18.4109 62.3332 14.7179 60.8133 13.4471 57.6118C12.9371 56.2125 13.037 54.8028 13.5506 53.419L13.5341 53.4147ZM1.64323 53.8834C1.5269 53.8846 1.41216 53.9103 1.30632 53.9585C1.20047 54.0068 1.10585 54.0767 1.02861 54.1637C0.95136 54.2506 0.893171 54.3528 0.857747 54.4636C0.822324 54.5744 0.810453 54.6914 0.822916 54.807C1.52602 62.2091 7.8835 67.4366 14.4013 69.5148C14.507 69.5537 14.6196 69.5708 14.7322 69.5651C14.8447 69.5593 14.9549 69.5308 15.0562 69.4813C15.1574 69.4318 15.2476 69.3623 15.3213 69.2771C15.3949 69.1918 15.4505 69.0924 15.4848 68.9851C15.519 68.8777 15.5312 68.7645 15.5205 68.6523C15.5098 68.5402 15.4765 68.4313 15.4226 68.3323C15.3687 68.2333 15.2953 68.1463 15.2068 68.0765C15.1184 68.0066 15.0167 67.9554 14.9079 67.9259C8.86407 65.9993 3.10385 61.1738 2.4838 54.6509C2.46637 54.4413 2.37039 54.246 2.2151 54.1041C2.0598 53.9622 1.85668 53.8842 1.64634 53.8858L1.64323 53.8834ZM77.0076 64.6004C76.8577 64.601 76.7108 64.6419 76.5822 64.719C76.4536 64.796 76.3482 64.9062 76.2769 65.0381C76.0357 65.4861 75.7565 65.9238 75.467 66.3512C74.8914 67.2094 74.2366 68.0228 73.5025 68.7879C73.4263 68.8671 73.3665 68.9604 73.3265 69.0627C73.2864 69.165 73.267 69.2742 73.2692 69.384C73.2715 69.4939 73.2954 69.6021 73.3396 69.7027C73.3837 69.8033 73.4473 69.8941 73.5267 69.9701C73.606 70.046 73.6996 70.1056 73.802 70.1453C73.9044 70.185 74.0136 70.2042 74.1234 70.2016C74.2332 70.1991 74.3415 70.1748 74.4419 70.1304C74.5423 70.0859 74.633 70.0221 74.7087 69.9425C75.5118 69.1085 76.2218 68.2158 76.8525 67.2852C77.1627 66.82 77.4591 66.3409 77.7314 65.8549C77.8045 65.728 77.843 65.5841 77.8429 65.4376C77.8428 65.2911 77.8041 65.1472 77.7308 65.0204C77.6574 64.8936 77.5519 64.7883 77.425 64.7152C77.298 64.6421 77.1541 64.6037 77.0076 64.6038V64.6004Z" fill="white"/>
</svg>
